<svg xmlns="http://www.w3.org/2000/svg" viewBox="0 0 900 560" role="img" aria-labelledby="title desc"><title id="title">Concentric-circle answer sketches</title><desc id="desc">Five labelled answer sketches with different radii and spacing.</desc><g fill="none" stroke="#252137" stroke-width="1.8"><g transform="translate(175 140)"><path d="M-125 0H125M0-125V125"/><circle r="24"/><circle r="52"/><circle r="76"/><circle r="91"/><circle r="106"/><circle r="116"/><circle r="124"/></g><g transform="translate(625 140)"><path d="M-125 0H125M0-125V125"/><circle r="15"/><circle r="36"/><circle r="53"/><circle r="75"/><circle r="91"/><circle r="112"/><circle r="124"/></g><g transform="translate(175 410)"><path d="M-125 0H125M0-125V125"/><circle r="22"/><circle r="43"/><circle r="62"/><circle r="80"/><circle r="97"/><circle r="112"/><circle r="125"/></g><g transform="translate(625 410)"><path d="M-125 0H125M0-125V125"/><circle r="56"/><circle r="65"/><circle r="73"/><circle r="83"/><circle r="95"/><circle r="109"/><circle r="125"/></g><g transform="translate(400 410) scale(.72)"><path d="M-125 0H125M0-125V125"/><circle r="8"/><circle r="18"/><circle r="29"/><circle r="43"/><circle r="61"/><circle r="87"/><circle r="125"/></g></g><g fill="#252137" font-family="Georgia,serif" font-size="24"><text x="25" y="35">A</text><text x="475" y="35">B</text><text x="25" y="305">C</text><text x="475" y="305">D</text><text x="295" y="305">E</text></g></svg>
