<svg xmlns="http://www.w3.org/2000/svg" viewBox="0 0 640 300" role="img" aria-labelledby="title desc" style="color:#282332">
  <title id="title">Graph of y equals f of x</title>
  <desc id="desc">The curve has a minimum at negative one, negative two, crosses the origin, and has a maximum at one, two.</desc>
  <g fill="none" stroke="currentColor" stroke-width="2.5">
    <path d="M24 150 H616"/>
    <path d="M606 141 L616 150 L606 159"/>
    <path d="M320 275 V25"/>
    <path d="M311 35 L320 25 L329 35"/>
    <path d="M28 154 C115 151 195 164 250 216 C264 229 274 234 284 226 C307 208 315 176 320 150 C326 111 340 69 365 70 C390 72 444 125 507 141 C550 151 586 150 608 149" stroke-width="3.5" stroke-linecap="round"/>
  </g>
  <g fill="currentColor">
    <circle cx="270" cy="230" r="5.5"/>
    <circle cx="365" cy="70" r="5.5"/>
  </g>
  <g fill="currentColor" font-family="Georgia, 'Times New Roman', serif" font-size="22">
    <text x="621" y="158" font-style="italic">x</text>
    <text x="300" y="31" font-style="italic">y</text>
    <text x="202" y="258">(−1, −2)</text>
    <text x="377" y="61">(1, 2)</text>
  </g>
</svg>
