<svg xmlns="http://www.w3.org/2000/svg" viewBox="0 0 700 360" role="img" aria-labelledby="title desc"><title id="title">Graph of the derivative</title><desc id="desc">A smooth curve crosses the horizontal axis at A and C, has a low point at B, passes through D, peaks at E, and touches the axis at F.</desc><g fill="none" stroke="#252137" stroke-width="2"><path d="M30 230H670M360 330V20"/><path d="M70 40C85 130 95 210 120 230C155 285 180 315 230 230C280 120 330 65 400 50C480 25 515 220 575 230C620 240 635 150 665 85"/></g><g fill="#252137" font-family="Georgia,serif" font-size="20"><circle cx="120" cy="230" r="5"/><text x="105" y="255">A</text><circle cx="180" cy="292" r="5"/><text x="170" y="320">B</text><circle cx="230" cy="230" r="5"/><text x="220" y="255">C</text><circle cx="360" cy="90" r="5"/><text x="372" y="98">D</text><circle cx="435" cy="48" r="5"/><text x="430" y="35">E</text><circle cx="575" cy="230" r="5"/><text x="570" y="257">F</text></g></svg>
