<svg xmlns="http://www.w3.org/2000/svg" viewBox="0 0 900 430" role="img" aria-labelledby="title desc"><title id="title">Six graph sketches</title><desc id="desc">Six options A to F showing monotone curves with or without horizontal asymptotes.</desc><defs><g id="axes" fill="none" stroke="#252137"><path d="M10 150H250M120 185V10"/></g></defs><g fill="none" stroke="#252137" stroke-width="2"><g transform="translate(20 25)"><use href="#axes"/><path d="M10 145C70 140 90 115 120 88S200 45 250 42"/><path d="M10 40H250" stroke-dasharray="7 7"/></g><g transform="translate(320 25)"><use href="#axes"/><path d="M10 145C75 138 145 100 240 20"/></g><g transform="translate(620 25)"><use href="#axes"/><path d="M10 110C80 102 160 70 240 20"/><path d="M10 125H250" stroke-dasharray="7 7"/></g><g transform="translate(20 230)"><use href="#axes"/><path d="M10 45C75 52 145 110 245 145"/><path d="M10 40H250" stroke-dasharray="7 7"/></g><g transform="translate(320 230)"><use href="#axes"/><path d="M10 20C85 75 150 125 245 145"/></g><g transform="translate(620 230)"><use href="#axes"/><path d="M10 20C75 70 155 95 245 105"/><path d="M10 125H250" stroke-dasharray="7 7"/></g></g><g fill="#252137" font-family="Georgia,serif" font-size="24"><text x="25" y="25">A</text><text x="325" y="25">B</text><text x="625" y="25">C</text><text x="25" y="230">D</text><text x="325" y="230">E</text><text x="625" y="230">F</text></g></svg>
