<svg xmlns="http://www.w3.org/2000/svg" viewBox="0 0 520 520" role="img" aria-labelledby="title desc"><title id="title">Square spiral</title><desc id="desc">A square spiral through integer-coordinate corners, continuing outward.</desc><g stroke="#b8b4ad" stroke-width="1"> <path d="M20 20V500M68 20V500M116 20V500M164 20V500M212 20V500M260 20V500M308 20V500M356 20V500M404 20V500M452 20V500M500 20V500M20 20H500M20 68H500M20 116H500M20 164H500M20 212H500M20 260H500M20 308H500M20 356H500M20 404H500M20 452H500M20 500H500"/></g><g fill="none" stroke="#252137" stroke-width="4"><path d="M260 260H164V356H356V164H68V452H452V68H356"/><path d="M356 68l15-9m-15 9 15 9"/></g><g stroke="#252137" stroke-width="2"><path d="M20 260H500M260 20V500"/></g></svg>
